<?xml version="1.0" encoding="UTF-8" standalone="no"?>
<svg
   xmlns:dc="http://purl.org/dc/elements/1.1/"
   xmlns:cc="http://creativecommons.org/ns#"
   xmlns:rdf="http://www.w3.org/1999/02/22-rdf-syntax-ns#"
   xmlns:svg="http://www.w3.org/2000/svg"
   xmlns="http://www.w3.org/2000/svg"
   viewBox="0 0 2666.6667 2666.6667"
   height="2666.6667"
   width="2666.6667"
   xml:space="preserve"
   id="svg2"
   version="1.1"><metadata
     id="metadata8"><rdf:RDF><cc:Work
         rdf:about=""><dc:format>image/svg+xml</dc:format><dc:type
           rdf:resource="http://purl.org/dc/dcmitype/StillImage" /></cc:Work></rdf:RDF></metadata><defs
     id="defs6" /><g
     transform="matrix(1.3333333,0,0,-1.3333333,0,2666.6667)"
     id="g10"><g
       transform="scale(0.1)"
       id="g12"><g
         transform="scale(1.22699)"
         id="g14"><path
           id="path16"
           style="fill:#ffffff;fill-opacity:1;fill-rule:nonzero;stroke:none"
           d="M 0,16300 V 0 H 16300 V 16300 H 0" /></g><g
         transform="scale(1.06094)"
         id="g18"><path
           id="path20"
           style="fill:#000000;fill-opacity:1;fill-rule:evenodd;stroke:none"
           d="m 13368.8,7079.11 c 320.1,0 571.4,-251.29 571.4,-571.29 0,-320 -251.3,-571.28 -571.4,-571.28 -320,0 -571.2,251.28 -571.2,571.28 0,320 251.2,571.29 571.2,571.29 z m -7634.43,0 c 320.02,0 571.26,-251.29 571.26,-571.29 0,-320 -251.24,-571.28 -571.26,-571.28 -320.01,0 -571.29,251.28 -571.29,571.28 0,320 251.28,571.29 571.29,571.29 z M 3009.03,7650.4 c -101.56,0 -183.9,-82.29 -183.9,-183.9 v -505.3 c 0,-124.23 100.64,-224.81 224.77,-224.81 h 985.93 c 45.75,339.99 192.45,658.38 421.11,914.01 z m 10359.77,190.39 c -731.6,0 -1332.9,-601.26 -1332.9,-1332.97 0,-731.62 601.3,-1332.97 1332.9,-1332.97 731.7,0 1333.1,601.35 1333.1,1332.97 0,731.71 -601.4,1332.97 -1333.1,1332.97 z m -7634.43,0 c -731.69,0 -1333,-601.26 -1333,-1332.97 0,-731.62 601.31,-1332.97 1333,-1332.97 731.67,0 1332.97,601.35 1332.97,1332.97 0,731.71 -601.3,1332.97 -1332.97,1332.97 z m 5814.23,2311.41 h 525.2 c 58.4,0 105.3,-47 105.3,-105.2 0,-58.36 -46.9,-105.3 -105.3,-105.3 h -525.2 c -58.2,0 -105.1,46.94 -105.1,105.3 0,58.2 46.9,105.2 105.1,105.2 z m 154.9,1841.1 h 1975.2 c 119.4,0 231.1,-59 298.5,-157.5 l 843.1,-1233 c 17.5,-25.7 19.4,-58.9 4.9,-86.4 -14.5,-27.6 -43,-44.8 -74.2,-44.8 h -3148.7 c -79.8,0 -144.5,64.7 -144.5,144.5 v 1131.6 c 0,65.1 25.9,127.6 72,173.6 46.1,46.1 108.5,72 173.7,72 z m -532.7,794.2 c -223.2,-0.2 -404.2,-181.2 -404.4,-404.4 l -4.7,-4732.7 H 7011.78 c 228.69,-255.63 375.38,-574.02 421.14,-914.01 h 4237.38 c 114.5,850.57 840.3,1485.29 1698.5,1485.29 858.3,0 1584.2,-634.72 1698.6,-1485.29 h 1030.3 c 53.7,0 105.1,21.3 143.1,59.19 37.9,37.99 59.2,89.46 59.2,143.09 v 538.39 c 0,95.76 -77.6,173.34 -173.3,173.34 h -185.4 v 2240.05 c 0,357.05 -111.9,705.15 -320,995.35 L 14509,12436.9 c -130,181.4 -338.2,290.9 -561.4,295.3 l -2768.3,55.2 c -2.9,0 -5.7,0.1 -8.5,0.1 z m -7860.94,888.9 c -259.56,0 -470,-210.5 -470,-470 V 8307.65 c 0,-30.64 12.17,-60.05 33.87,-81.73 21.67,-21.68 51.09,-33.83 81.76,-33.83 h 7055.81 c 37.3,0 73.3,14.79 99.7,41.28 26.4,26.39 41.2,62.3 41.2,99.72 v 4914.11 c 0,237.1 -192.06,429.2 -429.02,429.2 H 3309.86" /></g></g></g></svg>